<svg xmlns="http://www.w3.org/2000/svg" width="1140" height="220" style="background:#fff"><text x="40" y="18" font-size="11" font-family="sans-serif">batch VQ reward mean±std per update (different prompts)</text><line x1="40" y1="180" x2="340" y2="180" stroke="#888"/><line x1="40" y1="40" x2="40" y2="180" stroke="#888"/><text x="2" y="44" font-size="9" font-family="sans-serif">-0.521</text><text x="2" y="180" font-size="9" font-family="sans-serif">-1.56</text><polyline points="40.0,93.5 82.9,89.5 125.7,135.5 168.6,131.0 211.4,126.9 254.3,111.2 297.1,106.9 340.0,129.0" fill="none" stroke="#1f77b4" stroke-width="2"/><circle cx="40.0" cy="93.5" r="3" fill="#1f77b4"/><line x1="40.0" y1="146.9" x2="40.0" y2="40.0" stroke="#1f77b4"/><text x="37.0" y="194" font-size="9" font-family="sans-serif">1</text><circle cx="82.9" cy="89.5" r="3" fill="#1f77b4"/><line x1="82.9" y1="130.5" x2="82.9" y2="48.5" stroke="#1f77b4"/><text x="79.9" y="194" font-size="9" font-family="sans-serif">2</text><circle cx="125.7" cy="135.5" r="3" fill="#1f77b4"/><line x1="125.7" y1="167.1" x2="125.7" y2="103.9" stroke="#1f77b4"/><text x="122.7" y="194" font-size="9" font-family="sans-serif">3</text><circle cx="168.6" cy="131.0" r="3" fill="#1f77b4"/><line x1="168.6" y1="180.0" x2="168.6" y2="82.0" stroke="#1f77b4"/><text x="165.6" y="194" font-size="9" font-family="sans-serif">4</text><circle cx="211.4" cy="126.9" r="3" fill="#1f77b4"/><line x1="211.4" y1="157.9" x2="211.4" y2="95.8" stroke="#1f77b4"/><text x="208.4" y="194" font-size="9" font-family="sans-serif">5</text><circle cx="254.3" cy="111.2" r="3" fill="#1f77b4"/><line x1="254.3" y1="152.0" x2="254.3" y2="70.3" stroke="#1f77b4"/><text x="251.3" y="194" font-size="9" font-family="sans-serif">6</text><circle cx="297.1" cy="106.9" r="3" fill="#1f77b4"/><line x1="297.1" y1="153.0" x2="297.1" y2="60.8" stroke="#1f77b4"/><text x="294.1" y="194" font-size="9" font-family="sans-serif">7</text><circle cx="340.0" cy="129.0" r="3" fill="#1f77b4"/><line x1="340.0" y1="176.5" x2="340.0" y2="81.4" stroke="#1f77b4"/><text x="337.0" y="194" font-size="9" font-family="sans-serif">8</text><text x="420" y="18" font-size="11" font-family="sans-serif">grad_norm per update</text><line x1="420" y1="180" x2="720" y2="180" stroke="#888"/><line x1="420" y1="40" x2="420" y2="180" stroke="#888"/><text x="382" y="44" font-size="9" font-family="sans-serif">0.0431</text><text x="382" y="180" font-size="9" font-family="sans-serif">0.00516</text><polyline points="420.0,171.7 462.9,169.6 505.7,180.0 548.6,153.5 591.4,91.8 634.3,82.8 677.1,116.9 720.0,40.0" fill="none" stroke="#1f77b4" stroke-width="2"/><circle cx="420.0" cy="171.7" r="3" fill="#1f77b4"/><text x="417.0" y="194" font-size="9" font-family="sans-serif">1</text><circle cx="462.9" cy="169.6" r="3" fill="#1f77b4"/><text x="459.9" y="194" font-size="9" font-family="sans-serif">2</text><circle cx="505.7" cy="180.0" r="3" fill="#1f77b4"/><text x="502.7" y="194" font-size="9" font-family="sans-serif">3</text><circle cx="548.6" cy="153.5" r="3" fill="#1f77b4"/><text x="545.6" y="194" font-size="9" font-family="sans-serif">4</text><circle cx="591.4" cy="91.8" r="3" fill="#1f77b4"/><text x="588.4" y="194" font-size="9" font-family="sans-serif">5</text><circle cx="634.3" cy="82.8" r="3" fill="#1f77b4"/><text x="631.3" y="194" font-size="9" font-family="sans-serif">6</text><circle cx="677.1" cy="116.9" r="3" fill="#1f77b4"/><text x="674.1" y="194" font-size="9" font-family="sans-serif">7</text><circle cx="720.0" cy="40.0" r="3" fill="#1f77b4"/><text x="717.0" y="194" font-size="9" font-family="sans-serif">8</text><text x="800" y="18" font-size="11" font-family="sans-serif">pre-update max |logprob diff| (replay parity)</text><line x1="800" y1="180" x2="1100" y2="180" stroke="#888"/><line x1="800" y1="40" x2="800" y2="180" stroke="#888"/><text x="762" y="44" font-size="9" font-family="sans-serif">1e-06</text><text x="762" y="180" font-size="9" font-family="sans-serif">0</text><polyline points="800.0,180.0 842.9,180.0 885.7,180.0 928.6,180.0 971.4,180.0 1014.3,180.0 1057.1,180.0 1100.0,180.0" fill="none" stroke="#1f77b4" stroke-width="2"/><circle cx="800.0" cy="180.0" r="3" fill="#1f77b4"/><text x="797.0" y="194" font-size="9" font-family="sans-serif">1</text><circle cx="842.9" cy="180.0" r="3" fill="#1f77b4"/><text x="839.9" y="194" font-size="9" font-family="sans-serif">2</text><circle cx="885.7" cy="180.0" r="3" fill="#1f77b4"/><text x="882.7" y="194" font-size="9" font-family="sans-serif">3</text><circle cx="928.6" cy="180.0" r="3" fill="#1f77b4"/><text x="925.6" y="194" font-size="9" font-family="sans-serif">4</text><circle cx="971.4" cy="180.0" r="3" fill="#1f77b4"/><text x="968.4" y="194" font-size="9" font-family="sans-serif">5</text><circle cx="1014.3" cy="180.0" r="3" fill="#1f77b4"/><text x="1011.3" y="194" font-size="9" font-family="sans-serif">6</text><circle cx="1057.1" cy="180.0" r="3" fill="#1f77b4"/><text x="1054.1" y="194" font-size="9" font-family="sans-serif">7</text><circle cx="1100.0" cy="180.0" r="3" fill="#1f77b4"/><text x="1097.0" y="194" font-size="9" font-family="sans-serif">8</text></svg>